<svg width="24" height="25" viewBox="0 0 24 25" fill="none" xmlns="http://www.w3.org/2000/svg">
<path d="M5 3.91992H19C19.5304 3.91992 20.0391 4.13064 20.4142 4.50571C20.7893 4.88078 21 5.38949 21 5.91992V19.9199C21 20.4504 20.7893 20.9591 20.4142 21.3341C20.0391 21.7092 19.5304 21.9199 19 21.9199H5C4.46957 21.9199 3.96086 21.7092 3.58579 21.3341C3.21071 20.9591 3 20.4504 3 19.9199V5.91992C3 5.38949 3.21071 4.88078 3.58579 4.50571C3.96086 4.13064 4.46957 3.91992 5 3.91992ZM18 5.91992H15.5C14.5717 5.91992 13.6815 6.28867 13.0251 6.94505C12.3687 7.60143 12 8.49166 12 9.41992V11.9199H10V14.9199H12V21.9199H15V14.9199H18V11.9199H15V9.91992C15 9.65471 15.1054 9.40035 15.2929 9.21282C15.4804 9.02528 15.7348 8.91992 16 8.91992H18V5.91992Z" fill="black"/>
</svg>
