<svg width="24" height="25" viewBox="0 0 24 25" fill="none" xmlns="http://www.w3.org/2000/svg">
<path d="M7.8 2.91992H16.2C19.4 2.91992 22 5.51992 22 8.71992V17.1199C22 18.6582 21.3889 20.1334 20.3012 21.2211C19.2135 22.3089 17.7383 22.9199 16.2 22.9199H7.8C4.6 22.9199 2 20.3199 2 17.1199V8.71992C2 7.18167 2.61107 5.70641 3.69878 4.6187C4.78649 3.53099 6.26174 2.91992 7.8 2.91992ZM7.6 4.91992C6.64522 4.91992 5.72955 5.29921 5.05442 5.97434C4.37928 6.64947 4 7.56514 4 8.51992V17.3199C4 19.3099 5.61 20.9199 7.6 20.9199H16.4C17.3548 20.9199 18.2705 20.5406 18.9456 19.8655C19.6207 19.1904 20 18.2747 20 17.3199V8.51992C20 6.52992 18.39 4.91992 16.4 4.91992H7.6ZM17.25 6.41992C17.5815 6.41992 17.8995 6.55162 18.1339 6.78604C18.3683 7.02046 18.5 7.3384 18.5 7.66992C18.5 8.00144 18.3683 8.31939 18.1339 8.55381C17.8995 8.78823 17.5815 8.91992 17.25 8.91992C16.9185 8.91992 16.6005 8.78823 16.3661 8.55381C16.1317 8.31939 16 8.00144 16 7.66992C16 7.3384 16.1317 7.02046 16.3661 6.78604C16.6005 6.55162 16.9185 6.41992 17.25 6.41992ZM12 7.91992C13.3261 7.91992 14.5979 8.44671 15.5355 9.38439C16.4732 10.3221 17 11.5938 17 12.9199C17 14.246 16.4732 15.5178 15.5355 16.4555C14.5979 17.3931 13.3261 17.9199 12 17.9199C10.6739 17.9199 9.40215 17.3931 8.46447 16.4555C7.52678 15.5178 7 14.246 7 12.9199C7 11.5938 7.52678 10.3221 8.46447 9.38439C9.40215 8.44671 10.6739 7.91992 12 7.91992ZM12 9.91992C11.2044 9.91992 10.4413 10.236 9.87868 10.7986C9.31607 11.3612 9 12.1243 9 12.9199C9 13.7156 9.31607 14.4786 9.87868 15.0412C10.4413 15.6039 11.2044 15.9199 12 15.9199C12.7956 15.9199 13.5587 15.6039 14.1213 15.0412C14.6839 14.4786 15 13.7156 15 12.9199C15 12.1243 14.6839 11.3612 14.1213 10.7986C13.5587 10.236 12.7956 9.91992 12 9.91992Z" fill="black"/>
</svg>
