<svg width="24" height="25" viewBox="0 0 24 25" fill="none" xmlns="http://www.w3.org/2000/svg">
<path d="M22.46 6.91992C21.69 7.26992 20.86 7.49992 20 7.60992C20.88 7.07992 21.56 6.23992 21.88 5.22992C21.05 5.72992 20.13 6.07992 19.16 6.27992C18.37 5.41992 17.26 4.91992 16 4.91992C13.65 4.91992 11.73 6.83992 11.73 9.20992C11.73 9.54992 11.77 9.87992 11.84 10.1899C8.28004 10.0099 5.11004 8.29992 3.00004 5.70992C2.63004 6.33992 2.42004 7.07992 2.42004 7.85992C2.42004 9.34992 3.17004 10.6699 4.33004 11.4199C3.62004 11.4199 2.96004 11.2199 2.38004 10.9199V10.9499C2.38004 13.0299 3.86004 14.7699 5.82004 15.1599C5.19077 15.3321 4.53013 15.3561 3.89004 15.2299C4.16165 16.0824 4.69358 16.8283 5.41106 17.3629C6.12854 17.8974 6.99549 18.1936 7.89004 18.2099C6.37367 19.4104 4.49404 20.0592 2.56004 20.0499C2.22004 20.0499 1.88004 20.0299 1.54004 19.9899C3.44004 21.2099 5.70004 21.9199 8.12004 21.9199C16 21.9199 20.33 15.3799 20.33 9.70992C20.33 9.51992 20.33 9.33992 20.32 9.14992C21.16 8.54992 21.88 7.78992 22.46 6.91992Z" fill="black"/>
</svg>
