<svg width="24" height="25" viewBox="0 0 24 25" fill="none" xmlns="http://www.w3.org/2000/svg">
<path d="M16.75 14.8799C17 15.0099 17.16 15.0799 17.21 15.1799C17.27 15.2899 17.25 15.7899 17 16.3599C16.8 16.9199 15.76 17.4599 15.3 17.4799C14.84 17.4999 14.83 17.8399 12.34 16.7499C9.85001 15.6599 8.35001 12.9999 8.23001 12.8299C8.11001 12.6599 7.27001 11.4499 7.31001 10.2199C7.36001 8.99992 8.00001 8.41992 8.26001 8.17992C8.50001 7.91992 8.77001 7.88992 8.94001 7.91992H9.41001C9.56001 7.91992 9.77001 7.85992 9.96001 8.36992L10.65 10.2399C10.71 10.3699 10.75 10.5199 10.66 10.6799L10.39 11.0899L10 11.5099C9.88001 11.6299 9.74001 11.7599 9.88001 12.0099C10 12.2699 10.5 13.0999 11.2 13.7899C12.11 14.6699 12.91 14.9599 13.15 15.0899C13.39 15.2299 13.54 15.2099 13.69 15.0499L14.5 14.1099C14.69 13.8599 14.85 13.9199 15.08 13.9999L16.75 14.8799ZM12 2.91992C13.3132 2.91992 14.6136 3.17858 15.8268 3.68113C17.0401 4.18367 18.1425 4.92027 19.0711 5.84885C19.9997 6.77744 20.7363 7.87983 21.2388 9.09309C21.7413 10.3063 22 11.6067 22 12.9199C22 15.5721 20.9464 18.1156 19.0711 19.991C17.1957 21.8664 14.6522 22.9199 12 22.9199C10.03 22.9199 8.20001 22.3499 6.65001 21.3699L2.00001 22.9199L3.55001 18.2699C2.53551 16.6701 1.99786 14.8143 2.00001 12.9199C2.00001 10.2678 3.05357 7.72422 4.92894 5.84885C6.8043 3.97349 9.34784 2.91992 12 2.91992ZM12 4.91992C9.87827 4.91992 7.84344 5.76278 6.34315 7.26307C4.84286 8.76336 4.00001 10.7982 4.00001 12.9199C4.00001 14.6399 4.54001 16.2299 5.46001 17.5299L4.50001 20.4199L7.39001 19.4599C8.73779 20.4135 10.349 20.9237 12 20.9199C14.1217 20.9199 16.1566 20.0771 17.6569 18.5768C19.1572 17.0765 20 15.0417 20 12.9199C20 10.7982 19.1572 8.76336 17.6569 7.26307C16.1566 5.76278 14.1217 4.91992 12 4.91992Z" fill="black"/>
</svg>
