<svg width="24" height="25" viewBox="0 0 24 25" fill="none" xmlns="http://www.w3.org/2000/svg">
<path d="M10 15.9199L15.19 12.9199L10 9.91992V15.9199ZM21.56 8.08992C21.69 8.55992 21.78 9.18992 21.84 9.98992C21.91 10.7899 21.94 11.4799 21.94 12.0799L22 12.9199C22 15.1099 21.84 16.7199 21.56 17.7499C21.31 18.6499 20.73 19.2299 19.83 19.4799C19.36 19.6099 18.5 19.6999 17.18 19.7599C15.88 19.8299 14.69 19.8599 13.59 19.8599L12 19.9199C7.81 19.9199 5.2 19.7599 4.17 19.4799C3.27 19.2299 2.69 18.6499 2.44 17.7499C2.31 17.2799 2.22 16.6499 2.16 15.8499C2.09 15.0499 2.06 14.3599 2.06 13.7599L2 12.9199C2 10.7299 2.16 9.11992 2.44 8.08992C2.69 7.18992 3.27 6.60992 4.17 6.35992C4.64 6.22992 5.5 6.13992 6.82 6.07992C8.12 6.00992 9.31 5.97992 10.41 5.97992L12 5.91992C16.19 5.91992 18.8 6.07992 19.83 6.35992C20.73 6.60992 21.31 7.18992 21.56 8.08992Z" fill="black"/>
</svg>
